<svg width="16" height="16" viewBox="0 0 16 16" fill="none" xmlns="http://www.w3.org/2000/svg">
<path d="M13.7143 1.33325H2.28278C1.75897 1.33325 1.33337 1.7648 1.33337 2.29456V13.7053C1.33337 14.235 1.75897 14.6666 2.28278 14.6666H13.7143C14.2381 14.6666 14.6667 14.235 14.6667 13.7053V2.29456C14.6667 1.7648 14.2381 1.33325 13.7143 1.33325ZM5.36314 12.7618H3.38695V6.39873H5.36611V12.7618H5.36314ZM4.37504 5.52968C3.74111 5.52968 3.22921 5.0148 3.22921 4.38385C3.22921 3.75289 3.74111 3.23801 4.37504 3.23801C5.00599 3.23801 5.52087 3.75289 5.52087 4.38385C5.52087 5.01778 5.00897 5.52968 4.37504 5.52968ZM12.7709 12.7618H10.7947V9.66659C10.7947 8.92849 10.7798 7.97909 9.7679 7.97909C8.73814 7.97909 8.5804 8.78266 8.5804 9.61302V12.7618H6.60421V6.39873H8.50004V7.26778H8.52683C8.79171 6.76778 9.43754 6.24099 10.3989 6.24099C12.3989 6.24099 12.7709 7.55944 12.7709 9.27373V12.7618Z" fill="white"/>
</svg>
